# MagicaVoxel @ Ephtracy

# group
o Crystal

# material
mtllib IceCrystal.mtl
usemtl palette

# normals
vn -1 0 0
vn 1 0 0
vn 0 0 1
vn 0 0 -1
vn 0 -1 0
vn 0 1 0

# texcoords
vt 0.00195313 0.5
vt 0.00585938 0.5
vt 0.00976563 0.5
vt 0.0136719 0.5
vt 0.0175781 0.5
vt 0.0214844 0.5
vt 0.0253906 0.5
vt 0.0292969 0.5
vt 0.0332031 0.5
vt 0.0371094 0.5
vt 0.0410156 0.5
vt 0.0449219 0.5
vt 0.0488281 0.5
vt 0.0527344 0.5
vt 0.0566406 0.5
vt 0.0605469 0.5
vt 0.0644531 0.5
vt 0.0683594 0.5
vt 0.0722656 0.5
vt 0.0761719 0.5
vt 0.0800781 0.5
vt 0.0839844 0.5
vt 0.0878906 0.5
vt 0.0917969 0.5
vt 0.0957031 0.5
vt 0.0996094 0.5
vt 0.103516 0.5
vt 0.107422 0.5
vt 0.111328 0.5
vt 0.115234 0.5
vt 0.119141 0.5

# verts
v -3.2 0 1.2
v -3.2 0 -0.7
v -3.2 0.5 1.2
v -3.2 0.5 -0.7
v -2.6 0 2.2
v -2.6 0 1.2
v -2.6 0 -0.7
v -2.6 0 -1.7
v -2.6 0.5 2.2
v -2.6 0.5 1.2
v -2.6 0.5 -0.7
v -2.6 0.5 -1.7
v -2.1 0 2.7
v -2.1 0 2.2
v -2.1 0 -1.7
v -2.1 0 -2.2
v -2.1 0.5 2.7
v -2.1 0.5 2.2
v -2.1 0.5 -1.7
v -2.1 0.5 -2.2
v -1.6 0 3.2
v -1.6 0 2.7
v -1.6 0 -2.2
v -1.6 0 -2.7
v -1.6 0.5 3.2
v -1.6 0.5 2.7
v -1.6 0.5 -2.2
v -1.6 0.5 -2.7
v -1 0 -2.7
v -1 0 -3.2
v -1 0.5 -2.7
v -1 0.5 -3.2
v 1 0 -2.7
v 1 0 -3.2
v 1 0.5 -2.7
v 1 0.5 -3.2
v 1.6 0 3.2
v 1.6 0 2.7
v 1.6 0 -2.2
v 1.6 0 -2.7
v 1.6 0.5 3.2
v 1.6 0.5 2.7
v 1.6 0.5 -2.2
v 1.6 0.5 -2.7
v 2.1 0 2.7
v 2.1 0 2.2
v 2.1 0 -1.2
v 2.1 0 -2.2
v 2.1 0.5 2.7
v 2.1 0.5 2.2
v 2.1 0.5 -1.2
v 2.1 0.5 -2.2
v 2.6 0 2.2
v 2.6 0 1.7
v 2.6 0 -0.2
v 2.6 0 -0.3
v 2.6 0 -1.2
v 2.6 0.5 2.2
v 2.6 0.5 1.7
v 2.6 0.5 -0.2
v 2.6 0.5 -0.3
v 2.6 0.5 -1.2
v 3.2 0 1.7
v 3.2 0 -0.2
v 3.2 0.5 1.7
v 3.2 0.5 -0.2
v -1.6 0 3.2
v -1.6 0.5 3.2
v 1.6 0 3.2
v 1.6 0.5 3.2
v -2.1 0 2.7
v -2.1 0.5 2.7
v -1.6 0 2.7
v -1.6 0.5 2.7
v 1.6 0 2.7
v 1.6 0.5 2.7
v 2.1 0 2.7
v 2.1 0.5 2.7
v -2.6 0 2.2
v -2.6 0.5 2.2
v -2.1 0 2.2
v -2.1 0.5 2.2
v 2.1 0 2.2
v 2.1 0.5 2.2
v 2.6 0 2.2
v 2.6 0.5 2.2
v 2.6 0 1.7
v 2.6 0.5 1.7
v 3.2 0 1.7
v 3.2 0.5 1.7
v -3.2 0 1.2
v -3.2 0.5 1.2
v -2.6 0 1.2
v -2.6 0.5 1.2
v 2.6 0 -0.2
v 2.6 0.5 -0.2
v 3.2 0 -0.2
v 3.2 0.5 -0.2
v -3.2 0 -0.7
v -3.2 0.5 -0.7
v -2.6 0 -0.7
v -2.6 0.5 -0.7
v 2.1 0 -1.2
v 2.1 0.5 -1.2
v 2.6 0 -1.2
v 2.6 0.5 -1.2
v -2.6 0 -1.7
v -2.6 0.5 -1.7
v -2.1 0 -1.7
v -2.1 0.5 -1.7
v -2.1 0 -2.2
v -2.1 0.5 -2.2
v -1.6 0 -2.2
v -1.6 0.5 -2.2
v 1.6 0 -2.2
v 1.6 0.5 -2.2
v 2.1 0 -2.2
v 2.1 0.5 -2.2
v -1.6 0 -2.7
v -1.6 0.5 -2.7
v -1.1 0 -2.7
v -1.1 0.5 -2.7
v -1 0 -2.7
v -1 0.5 -2.7
v 1 0 -2.7
v 1 0.5 -2.7
v 1.1 0 -2.7
v 1.1 0.5 -2.7
v 1.6 0 -2.7
v 1.6 0.5 -2.7
v -1 0 -3.2
v -1 0.5 -3.2
v 1 0 -3.2
v 1 0.5 -3.2
v -1.6 0 3.2
v 1.6 0 3.2
v -2.1 0 2.7
v -1.6 0 2.7
v -1.1 0 2.7
v -1 0 2.7
v 1 0 2.7
v 1.1 0 2.7
v 1.6 0 2.7
v 2.1 0 2.7
v -2.6 0 2.2
v -2.1 0 2.2
v -1.6 0 2.2
v -1.1 0 2.2
v -1 0 2.2
v 1 0 2.2
v 1.1 0 2.2
v 1.6 0 2.2
v 2.1 0 2.2
v 2.6 0 2.2
v -2.1 0 1.7
v -1.6 0 1.7
v 1.6 0 1.7
v 2.1 0 1.7
v 2.6 0 1.7
v 3.2 0 1.7
v -3.2 0 1.2
v -2.6 0 1.2
v -2.1 0 1.2
v -1.6 0 1.2
v -1.1 0 1.2
v -1 0 1.2
v 1 0 1.2
v 1.1 0 1.2
v 1.6 0 1.2
v 2.1 0 1.2
v 2.6 0 1.2
v -1 0 0.8
v 1 0 0.8
v 1.6 0 0.8
v 2.1 0 0.8
v -2.1 0 0.7
v -1.6 0 0.7
v -1.1 0 0.7
v -1 0 0.7
v 1 0 0.7
v 1.1 0 0.7
v 1.6 0 0.7
v 2.1 0 0.7
v 2.6 0 0.7
v -1.1 0 0.3
v -1 0 0.3
v 1.6 0 0.3
v 2.1 0 0.3
v 2.6 0 0.3
v -2.1 0 0.2
v -1.6 0 0.2
v -1.1 0 0.2
v -1 0 0.2
v 1.6 0 0.2
v 2.1 0 0.2
v 2.6 0 0.2
v -1.6 0 -0.2
v -1.1 0 -0.2
v -1 0 -0.2
v 2.1 0 -0.2
v 2.6 0 -0.2
v 3.2 0 -0.2
v -1.6 0 -0.3
v -1.1 0 -0.3
v -1 0 -0.3
v 2.1 0 -0.3
v 2.6 0 -0.3
v -3.2 0 -0.7
v -2.6 0 -0.7
v -2.1 0 -0.7
v -1.6 0 -0.7
v -1.1 0 -0.7
v -1 0 -0.7
v -0.5 0 -0.7
v 1 0 -0.7
v 1.1 0 -0.7
v 1.6 0 -0.7
v 2.1 0 -0.7
v -1.6 0 -1.2
v -1.1 0 -1.2
v -1 0 -1.2
v -0.5 0 -1.2
v 0 0 -1.2
v 0.5 0 -1.2
v 1 0 -1.2
v 1.1 0 -1.2
v 1.6 0 -1.2
v 2.1 0 -1.2
v 2.6 0 -1.2
v -2.6 0 -1.7
v -2.1 0 -1.7
v -1.6 0 -1.7
v -1.1 0 -1.7
v -1 0 -1.7
v 0 0 -1.7
v 0.5 0 -1.7
v 1 0 -1.7
v 1.1 0 -1.7
v 1.6 0 -1.7
v -2.1 0 -2.2
v -1.6 0 -2.2
v -1.1 0 -2.2
v -1 0 -2.2
v 0.5 0 -2.2
v 1 0 -2.2
v 1.1 0 -2.2
v 1.6 0 -2.2
v 2.1 0 -2.2
v -1.6 0 -2.7
v -1.1 0 -2.7
v -1 0 -2.7
v 1 0 -2.7
v 1.1 0 -2.7
v 1.6 0 -2.7
v -1 0 -3.2
v 1 0 -3.2
v -1.6 0.5 3.2
v 1.6 0.5 3.2
v -2.1 0.5 2.7
v -1.6 0.5 2.7
v -1.1 0.5 2.7
v -1 0.5 2.7
v 1 0.5 2.7
v 1.1 0.5 2.7
v 1.6 0.5 2.7
v 2.1 0.5 2.7
v -2.6 0.5 2.2
v -2.1 0.5 2.2
v -1.6 0.5 2.2
v -1.1 0.5 2.2
v -1 0.5 2.2
v 1 0.5 2.2
v 1.1 0.5 2.2
v 1.6 0.5 2.2
v 2.1 0.5 2.2
v 2.6 0.5 2.2
v -2.1 0.5 1.7
v -1.6 0.5 1.7
v 1.6 0.5 1.7
v 2.1 0.5 1.7
v 2.6 0.5 1.7
v 3.2 0.5 1.7
v -3.2 0.5 1.2
v -2.6 0.5 1.2
v -2.1 0.5 1.2
v -1.6 0.5 1.2
v -1.1 0.5 1.2
v -1 0.5 1.2
v 1 0.5 1.2
v 1.1 0.5 1.2
v 1.6 0.5 1.2
v 2.1 0.5 1.2
v 2.6 0.5 1.2
v -1 0.5 0.8
v 1 0.5 0.8
v 1.6 0.5 0.8
v 2.1 0.5 0.8
v -2.1 0.5 0.7
v -1.6 0.5 0.7
v -1.1 0.5 0.7
v -1 0.5 0.7
v 1 0.5 0.7
v 1.1 0.5 0.7
v 1.6 0.5 0.7
v 2.1 0.5 0.7
v 2.6 0.5 0.7
v -1.1 0.5 0.3
v -1 0.5 0.3
v 1.6 0.5 0.3
v 2.1 0.5 0.3
v 2.6 0.5 0.3
v -2.1 0.5 0.2
v -1.6 0.5 0.2
v -1.1 0.5 0.2
v -1 0.5 0.2
v 1.6 0.5 0.2
v 2.1 0.5 0.2
v 2.6 0.5 0.2
v -1.6 0.5 -0.2
v -1.1 0.5 -0.2
v -1 0.5 -0.2
v 2.1 0.5 -0.2
v 2.6 0.5 -0.2
v 3.2 0.5 -0.2
v -1.6 0.5 -0.3
v -1.1 0.5 -0.3
v -1 0.5 -0.3
v 2.1 0.5 -0.3
v 2.6 0.5 -0.3
v -3.2 0.5 -0.7
v -2.6 0.5 -0.7
v -2.1 0.5 -0.7
v -1.6 0.5 -0.7
v -1.1 0.5 -0.7
v -1 0.5 -0.7
v -0.5 0.5 -0.7
v 1 0.5 -0.7
v 1.1 0.5 -0.7
v 1.6 0.5 -0.7
v 2.1 0.5 -0.7
v -1.6 0.5 -1.2
v -1.1 0.5 -1.2
v -1 0.5 -1.2
v -0.5 0.5 -1.2
v 0 0.5 -1.2
v 0.5 0.5 -1.2
v 1 0.5 -1.2
v 1.1 0.5 -1.2
v 1.6 0.5 -1.2
v 2.1 0.5 -1.2
v 2.6 0.5 -1.2
v -2.6 0.5 -1.7
v -2.1 0.5 -1.7
v -1.6 0.5 -1.7
v -1.1 0.5 -1.7
v -1 0.5 -1.7
v 0 0.5 -1.7
v 0.5 0.5 -1.7
v 1 0.5 -1.7
v 1.1 0.5 -1.7
v 1.6 0.5 -1.7
v -2.1 0.5 -2.2
v -1.6 0.5 -2.2
v -1.1 0.5 -2.2
v -1 0.5 -2.2
v 0.5 0.5 -2.2
v 1 0.5 -2.2
v 1.1 0.5 -2.2
v 1.6 0.5 -2.2
v 2.1 0.5 -2.2
v -1.6 0.5 -2.7
v -1.1 0.5 -2.7
v -1 0.5 -2.7
v 1 0.5 -2.7
v 1.1 0.5 -2.7
v 1.6 0.5 -2.7
v -1 0.5 -3.2
v 1 0.5 -3.2

# faces
f 3/2/1 2/2/1 1/2/1
f 4/2/1 2/2/1 3/2/1
f 9/2/1 6/2/1 5/2/1
f 10/2/1 6/2/1 9/2/1
f 11/2/1 8/2/1 7/2/1
f 12/2/1 8/2/1 11/2/1
f 17/2/1 14/2/1 13/2/1
f 18/2/1 14/2/1 17/2/1
f 19/2/1 16/2/1 15/2/1
f 20/2/1 16/2/1 19/2/1
f 25/2/1 22/2/1 21/2/1
f 26/2/1 22/2/1 25/2/1
f 27/2/1 24/2/1 23/2/1
f 28/2/1 24/2/1 27/2/1
f 31/2/1 30/2/1 29/2/1
f 32/2/1 30/2/1 31/2/1
f 33/2/2 34/2/2 35/2/2
f 35/2/2 34/2/2 36/2/2
f 37/2/2 38/2/2 41/2/2
f 41/2/2 38/2/2 42/2/2
f 39/2/2 40/2/2 43/2/2
f 43/2/2 40/2/2 44/2/2
f 45/2/2 46/2/2 49/2/2
f 49/2/2 46/2/2 50/2/2
f 47/2/2 48/2/2 51/2/2
f 51/2/2 48/2/2 52/2/2
f 53/2/2 54/2/2 58/2/2
f 58/2/2 54/2/2 59/2/2
f 55/25/2 56/25/2 60/25/2
f 56/2/2 57/2/2 61/2/2
f 60/25/2 56/25/2 61/25/2
f 61/2/2 57/2/2 62/2/2
f 63/2/2 64/2/2 65/2/2
f 65/2/2 64/2/2 66/2/2
f 69/2/3 68/2/3 67/2/3
f 70/2/3 68/2/3 69/2/3
f 73/2/3 72/2/3 71/2/3
f 74/2/3 72/2/3 73/2/3
f 77/2/3 76/2/3 75/2/3
f 78/2/3 76/2/3 77/2/3
f 81/2/3 80/2/3 79/2/3
f 82/2/3 80/2/3 81/2/3
f 85/2/3 84/2/3 83/2/3
f 86/2/3 84/2/3 85/2/3
f 89/2/3 88/2/3 87/2/3
f 90/2/3 88/2/3 89/2/3
f 93/2/3 92/2/3 91/2/3
f 94/2/3 92/2/3 93/2/3
f 95/2/4 96/2/4 97/2/4
f 97/2/4 96/2/4 98/2/4
f 99/2/4 100/2/4 101/2/4
f 101/2/4 100/2/4 102/2/4
f 103/2/4 104/2/4 105/2/4
f 105/2/4 104/2/4 106/2/4
f 107/2/4 108/2/4 109/2/4
f 109/2/4 108/2/4 110/2/4
f 111/2/4 112/2/4 113/2/4
f 113/2/4 112/2/4 114/2/4
f 115/2/4 116/2/4 117/2/4
f 117/2/4 116/2/4 118/2/4
f 119/2/4 120/2/4 121/2/4
f 121/2/4 120/2/4 122/2/4
f 121/30/4 122/30/4 123/30/4
f 123/30/4 122/30/4 124/30/4
f 125/31/4 126/31/4 127/31/4
f 127/31/4 126/31/4 128/31/4
f 127/2/4 128/2/4 129/2/4
f 129/2/4 128/2/4 130/2/4
f 131/2/4 132/2/4 133/2/4
f 133/2/4 132/2/4 134/2/4
f 138/2/5 136/2/5 135/2/5
f 139/2/5 136/2/5 138/2/5
f 140/2/5 136/2/5 139/2/5
f 141/2/5 136/2/5 140/2/5
f 142/2/5 136/2/5 141/2/5
f 143/2/5 136/2/5 142/2/5
f 146/2/5 138/2/5 137/2/5
f 147/3/5 139/3/5 138/3/5
f 147/2/5 138/2/5 146/2/5
f 148/4/5 140/4/5 139/4/5
f 148/3/5 139/3/5 147/3/5
f 149/5/5 141/5/5 140/5/5
f 149/4/5 140/4/5 148/4/5
f 150/6/5 142/6/5 141/6/5
f 150/5/5 141/5/5 149/5/5
f 151/3/5 143/3/5 142/3/5
f 151/6/5 142/6/5 150/6/5
f 152/2/5 144/2/5 143/2/5
f 152/3/5 143/3/5 151/3/5
f 153/2/5 144/2/5 152/2/5
f 155/2/5 146/2/5 145/2/5
f 155/7/5 147/7/5 146/7/5
f 156/8/5 148/8/5 147/8/5
f 156/7/5 147/7/5 155/7/5
f 157/3/5 153/3/5 152/3/5
f 157/8/5 152/8/5 151/8/5
f 158/2/5 154/2/5 153/2/5
f 158/3/5 153/3/5 157/3/5
f 159/2/5 154/2/5 158/2/5
f 162/2/5 155/2/5 145/2/5
f 163/11/5 156/11/5 155/11/5
f 163/2/5 155/2/5 162/2/5
f 164/8/5 148/8/5 156/8/5
f 164/11/5 156/11/5 163/11/5
f 165/9/5 149/9/5 148/9/5
f 165/8/5 148/8/5 164/8/5
f 166/5/5 150/5/5 149/5/5
f 166/9/5 149/9/5 165/9/5
f 167/10/5 151/10/5 150/10/5
f 167/5/5 150/5/5 166/5/5
f 168/8/5 157/8/5 151/8/5
f 168/10/5 151/10/5 167/10/5
f 169/5/5 158/5/5 157/5/5
f 169/8/5 157/8/5 168/8/5
f 170/2/5 160/2/5 159/2/5
f 170/5/5 158/5/5 169/5/5
f 170/2/5 159/2/5 158/2/5
f 171/2/5 160/2/5 170/2/5
f 172/12/5 166/12/5 165/12/5
f 172/3/5 167/3/5 166/3/5
f 173/13/5 168/13/5 167/13/5
f 173/3/5 167/3/5 172/3/5
f 174/5/5 169/5/5 168/5/5
f 174/5/5 170/5/5 169/5/5
f 175/3/5 171/3/5 170/3/5
f 175/5/5 170/5/5 174/5/5
f 176/1/5 163/1/5 162/1/5
f 176/11/5 164/11/5 163/11/5
f 176/11/5 165/11/5 164/11/5
f 177/11/5 165/11/5 176/11/5
f 178/12/5 172/12/5 165/12/5
f 178/11/5 165/11/5 177/11/5
f 179/10/5 173/10/5 172/10/5
f 179/12/5 172/12/5 178/12/5
f 180/13/5 168/13/5 173/13/5
f 180/10/5 173/10/5 179/10/5
f 181/5/5 174/5/5 168/5/5
f 181/13/5 168/13/5 180/13/5
f 182/14/5 175/14/5 174/14/5
f 182/5/5 174/5/5 181/5/5
f 183/3/5 171/3/5 175/3/5
f 183/14/5 175/14/5 182/14/5
f 184/2/5 160/2/5 171/2/5
f 184/3/5 171/3/5 183/3/5
f 185/16/5 179/16/5 178/16/5
f 185/5/5 178/5/5 177/5/5
f 186/17/5 180/17/5 179/17/5
f 186/16/5 179/16/5 185/16/5
f 187/8/5 183/8/5 182/8/5
f 187/3/5 182/3/5 181/3/5
f 187/8/5 184/8/5 183/8/5
f 188/8/5 184/8/5 187/8/5
f 189/2/5 160/2/5 184/2/5
f 189/8/5 184/8/5 188/8/5
f 190/1/5 176/1/5 162/1/5
f 190/15/5 177/15/5 176/15/5
f 191/5/5 185/5/5 177/5/5
f 191/15/5 177/15/5 190/15/5
f 192/19/5 186/19/5 185/19/5
f 192/5/5 185/5/5 191/5/5
f 193/17/5 180/17/5 186/17/5
f 193/19/5 186/19/5 192/19/5
f 194/20/5 188/20/5 187/20/5
f 194/3/5 187/3/5 181/3/5
f 195/21/5 189/21/5 188/21/5
f 195/20/5 188/20/5 194/20/5
f 196/2/5 160/2/5 189/2/5
f 196/21/5 189/21/5 195/21/5
f 197/15/5 192/15/5 191/15/5
f 197/17/5 191/17/5 190/17/5
f 198/22/5 193/22/5 192/22/5
f 198/15/5 192/15/5 197/15/5
f 199/17/5 180/17/5 193/17/5
f 199/22/5 193/22/5 198/22/5
f 200/7/5 196/7/5 195/7/5
f 200/11/5 195/11/5 194/11/5
f 201/2/5 160/2/5 196/2/5
f 201/7/5 196/7/5 200/7/5
f 202/2/5 160/2/5 201/2/5
f 203/23/5 198/23/5 197/23/5
f 203/17/5 197/17/5 190/17/5
f 204/24/5 199/24/5 198/24/5
f 204/23/5 198/23/5 203/23/5
f 205/17/5 180/17/5 199/17/5
f 205/24/5 199/24/5 204/24/5
f 206/11/5 200/11/5 194/11/5
f 206/25/5 201/25/5 200/25/5
f 207/25/5 201/25/5 206/25/5
f 208/2/5 162/2/5 161/2/5
f 209/1/5 190/1/5 162/1/5
f 209/2/5 162/2/5 208/2/5
f 210/17/5 203/17/5 190/17/5
f 210/1/5 190/1/5 209/1/5
f 211/1/5 204/1/5 203/1/5
f 211/17/5 203/17/5 210/17/5
f 212/26/5 205/26/5 204/26/5
f 212/1/5 204/1/5 211/1/5
f 213/17/5 180/17/5 205/17/5
f 213/26/5 205/26/5 212/26/5
f 214/17/5 180/17/5 213/17/5
f 215/18/5 181/18/5 180/18/5
f 215/17/5 180/17/5 214/17/5
f 216/3/5 194/3/5 181/3/5
f 216/18/5 181/18/5 215/18/5
f 217/11/5 206/11/5 194/11/5
f 217/3/5 194/3/5 216/3/5
f 218/2/5 207/2/5 206/2/5
f 218/11/5 206/11/5 217/11/5
f 219/17/5 212/17/5 211/17/5
f 219/1/5 211/1/5 210/1/5
f 220/27/5 213/27/5 212/27/5
f 220/17/5 212/17/5 219/17/5
f 221/1/5 214/1/5 213/1/5
f 221/27/5 213/27/5 220/27/5
f 222/15/5 215/15/5 214/15/5
f 222/1/5 214/1/5 221/1/5
f 223/15/5 215/15/5 222/15/5
f 224/15/5 215/15/5 223/15/5
f 225/28/5 216/28/5 215/28/5
f 225/15/5 215/15/5 224/15/5
f 226/11/5 217/11/5 216/11/5
f 226/28/5 216/28/5 225/28/5
f 227/7/5 218/7/5 217/7/5
f 227/11/5 217/11/5 226/11/5
f 228/2/5 207/2/5 218/2/5
f 228/7/5 218/7/5 227/7/5
f 229/2/5 207/2/5 228/2/5
f 230/2/5 210/2/5 209/2/5
f 231/1/5 219/1/5 210/1/5
f 231/2/5 210/2/5 230/2/5
f 232/15/5 220/15/5 219/15/5
f 232/1/5 219/1/5 231/1/5
f 233/22/5 221/22/5 220/22/5
f 233/15/5 220/15/5 232/15/5
f 234/17/5 222/17/5 221/17/5
f 234/22/5 221/22/5 233/22/5
f 234/17/5 223/17/5 222/17/5
f 235/1/5 224/1/5 223/1/5
f 235/17/5 223/17/5 234/17/5
f 236/11/5 227/11/5 226/11/5
f 236/1/5 224/1/5 235/1/5
f 236/11/5 226/11/5 225/11/5
f 236/11/5 225/11/5 224/11/5
f 237/11/5 227/11/5 236/11/5
f 238/11/5 227/11/5 237/11/5
f 239/2/5 228/2/5 227/2/5
f 239/11/5 227/11/5 238/11/5
f 240/2/5 232/2/5 231/2/5
f 241/1/5 233/1/5 232/1/5
f 241/2/5 232/2/5 240/2/5
f 242/26/5 234/26/5 233/26/5
f 242/1/5 233/1/5 241/1/5
f 243/17/5 235/17/5 234/17/5
f 243/26/5 234/26/5 242/26/5
f 243/17/5 236/17/5 235/17/5
f 244/15/5 237/15/5 236/15/5
f 244/17/5 236/17/5 243/17/5
f 245/29/5 238/29/5 237/29/5
f 245/15/5 237/15/5 244/15/5
f 246/7/5 239/7/5 238/7/5
f 246/29/5 238/29/5 245/29/5
f 247/2/5 228/2/5 239/2/5
f 247/7/5 239/7/5 246/7/5
f 248/2/5 228/2/5 247/2/5
f 249/2/5 242/2/5 241/2/5
f 250/30/5 243/30/5 242/30/5
f 250/2/5 242/2/5 249/2/5
f 251/1/5 244/1/5 243/1/5
f 251/30/5 243/30/5 250/30/5
f 251/1/5 245/1/5 244/1/5
f 252/31/5 246/31/5 245/31/5
f 252/1/5 245/1/5 251/1/5
f 253/2/5 247/2/5 246/2/5
f 253/31/5 246/31/5 252/31/5
f 254/2/5 247/2/5 253/2/5
f 255/2/5 252/2/5 251/2/5
f 256/2/5 252/2/5 255/2/5
f 257/2/6 258/2/6 260/2/6
f 260/2/6 258/2/6 261/2/6
f 261/2/6 258/2/6 262/2/6
f 262/2/6 258/2/6 263/2/6
f 263/2/6 258/2/6 264/2/6
f 264/2/6 258/2/6 265/2/6
f 259/2/6 260/2/6 268/2/6
f 260/3/6 261/3/6 269/3/6
f 268/2/6 260/2/6 269/2/6
f 261/4/6 262/4/6 270/4/6
f 269/3/6 261/3/6 270/3/6
f 262/5/6 263/5/6 271/5/6
f 270/4/6 262/4/6 271/4/6
f 263/6/6 264/6/6 272/6/6
f 271/5/6 263/5/6 272/5/6
f 264/3/6 265/3/6 273/3/6
f 272/6/6 264/6/6 273/6/6
f 265/2/6 266/2/6 274/2/6
f 273/3/6 265/3/6 274/3/6
f 274/2/6 266/2/6 275/2/6
f 267/2/6 268/2/6 277/2/6
f 268/7/6 269/7/6 277/7/6
f 269/8/6 270/8/6 278/8/6
f 277/7/6 269/7/6 278/7/6
f 274/3/6 275/3/6 279/3/6
f 273/8/6 274/8/6 279/8/6
f 275/2/6 276/2/6 280/2/6
f 279/3/6 275/3/6 280/3/6
f 280/2/6 276/2/6 281/2/6
f 267/2/6 277/2/6 284/2/6
f 277/11/6 278/11/6 285/11/6
f 284/2/6 277/2/6 285/2/6
f 278/8/6 270/8/6 286/8/6
f 285/11/6 278/11/6 286/11/6
f 270/9/6 271/9/6 287/9/6
f 286/8/6 270/8/6 287/8/6
f 271/5/6 272/5/6 288/5/6
f 287/9/6 271/9/6 288/9/6
f 272/10/6 273/10/6 289/10/6
f 288/5/6 272/5/6 289/5/6
f 273/8/6 279/8/6 290/8/6
f 289/10/6 273/10/6 290/10/6
f 279/5/6 280/5/6 291/5/6
f 290/8/6 279/8/6 291/8/6
f 281/2/6 282/2/6 292/2/6
f 291/5/6 280/5/6 292/5/6
f 280/2/6 281/2/6 292/2/6
f 292/2/6 282/2/6 293/2/6
f 287/12/6 288/12/6 294/12/6
f 288/3/6 289/3/6 294/3/6
f 289/13/6 290/13/6 295/13/6
f 294/3/6 289/3/6 295/3/6
f 290/5/6 291/5/6 296/5/6
f 291/5/6 292/5/6 296/5/6
f 292/3/6 293/3/6 297/3/6
f 296/5/6 292/5/6 297/5/6
f 284/1/6 285/1/6 298/1/6
f 285/11/6 286/11/6 298/11/6
f 286/11/6 287/11/6 298/11/6
f 298/11/6 287/11/6 299/11/6
f 287/12/6 294/12/6 300/12/6
f 299/11/6 287/11/6 300/11/6
f 294/10/6 295/10/6 301/10/6
f 300/12/6 294/12/6 301/12/6
f 295/13/6 290/13/6 302/13/6
f 301/10/6 295/10/6 302/10/6
f 290/5/6 296/5/6 303/5/6
f 302/13/6 290/13/6 303/13/6
f 296/14/6 297/14/6 304/14/6
f 303/5/6 296/5/6 304/5/6
f 297/3/6 293/3/6 305/3/6
f 304/14/6 297/14/6 305/14/6
f 293/2/6 282/2/6 306/2/6
f 305/3/6 293/3/6 306/3/6
f 300/16/6 301/16/6 307/16/6
f 299/5/6 300/5/6 307/5/6
f 301/17/6 302/17/6 308/17/6
f 307/16/6 301/16/6 308/16/6
f 304/8/6 305/8/6 309/8/6
f 303/3/6 304/3/6 309/3/6
f 305/8/6 306/8/6 309/8/6
f 309/8/6 306/8/6 310/8/6
f 306/2/6 282/2/6 311/2/6
f 310/8/6 306/8/6 311/8/6
f 284/1/6 298/1/6 312/1/6
f 298/15/6 299/15/6 312/15/6
f 299/5/6 307/5/6 313/5/6
f 312/15/6 299/15/6 313/15/6
f 307/19/6 308/19/6 314/19/6
f 313/5/6 307/5/6 314/5/6
f 308/17/6 302/17/6 315/17/6
f 314/19/6 308/19/6 315/19/6
f 309/20/6 310/20/6 316/20/6
f 303/3/6 309/3/6 316/3/6
f 310/21/6 311/21/6 317/21/6
f 316/20/6 310/20/6 317/20/6
f 311/2/6 282/2/6 318/2/6
f 317/21/6 311/21/6 318/21/6
f 313/15/6 314/15/6 319/15/6
f 312/17/6 313/17/6 319/17/6
f 314/22/6 315/22/6 320/22/6
f 319/15/6 314/15/6 320/15/6
f 315/17/6 302/17/6 321/17/6
f 320/22/6 315/22/6 321/22/6
f 317/7/6 318/7/6 322/7/6
f 316/11/6 317/11/6 322/11/6
f 318/2/6 282/2/6 323/2/6
f 322/7/6 318/7/6 323/7/6
f 323/2/6 282/2/6 324/2/6
f 319/23/6 320/23/6 325/23/6
f 312/17/6 319/17/6 325/17/6
f 320/24/6 321/24/6 326/24/6
f 325/23/6 320/23/6 326/23/6
f 321/17/6 302/17/6 327/17/6
f 326/24/6 321/24/6 327/24/6
f 316/11/6 322/11/6 328/11/6
f 322/25/6 323/25/6 328/25/6
f 328/25/6 323/25/6 329/25/6
f 283/2/6 284/2/6 330/2/6
f 284/1/6 312/1/6 331/1/6
f 330/2/6 284/2/6 331/2/6
f 312/17/6 325/17/6 332/17/6
f 331/1/6 312/1/6 332/1/6
f 325/1/6 326/1/6 333/1/6
f 332/17/6 325/17/6 333/17/6
f 326/26/6 327/26/6 334/26/6
f 333/1/6 326/1/6 334/1/6
f 327/17/6 302/17/6 335/17/6
f 334/26/6 327/26/6 335/26/6
f 335/17/6 302/17/6 336/17/6
f 302/18/6 303/18/6 337/18/6
f 336/17/6 302/17/6 337/17/6
f 303/3/6 316/3/6 338/3/6
f 337/18/6 303/18/6 338/18/6
f 316/11/6 328/11/6 339/11/6
f 338/3/6 316/3/6 339/3/6
f 328/2/6 329/2/6 340/2/6
f 339/11/6 328/11/6 340/11/6
f 333/17/6 334/17/6 341/17/6
f 332/1/6 333/1/6 341/1/6
f 334/27/6 335/27/6 342/27/6
f 341/17/6 334/17/6 342/17/6
f 335/1/6 336/1/6 343/1/6
f 342/27/6 335/27/6 343/27/6
f 336/15/6 337/15/6 344/15/6
f 343/1/6 336/1/6 344/1/6
f 344/15/6 337/15/6 345/15/6
f 345/15/6 337/15/6 346/15/6
f 337/28/6 338/28/6 347/28/6
f 346/15/6 337/15/6 347/15/6
f 338/11/6 339/11/6 348/11/6
f 347/28/6 338/28/6 348/28/6
f 339/7/6 340/7/6 349/7/6
f 348/11/6 339/11/6 349/11/6
f 340/2/6 329/2/6 350/2/6
f 349/7/6 340/7/6 350/7/6
f 350/2/6 329/2/6 351/2/6
f 331/2/6 332/2/6 352/2/6
f 332/1/6 341/1/6 353/1/6
f 352/2/6 332/2/6 353/2/6
f 341/15/6 342/15/6 354/15/6
f 353/1/6 341/1/6 354/1/6
f 342/22/6 343/22/6 355/22/6
f 354/15/6 342/15/6 355/15/6
f 343/17/6 344/17/6 356/17/6
f 355/22/6 343/22/6 356/22/6
f 344/17/6 345/17/6 356/17/6
f 345/1/6 346/1/6 357/1/6
f 356/17/6 345/17/6 357/17/6
f 348/11/6 349/11/6 358/11/6
f 357/1/6 346/1/6 358/1/6
f 347/11/6 348/11/6 358/11/6
f 346/11/6 347/11/6 358/11/6
f 358/11/6 349/11/6 359/11/6
f 359/11/6 349/11/6 360/11/6
f 349/2/6 350/2/6 361/2/6
f 360/11/6 349/11/6 361/11/6
f 353/2/6 354/2/6 362/2/6
f 354/1/6 355/1/6 363/1/6
f 362/2/6 354/2/6 363/2/6
f 355/26/6 356/26/6 364/26/6
f 363/1/6 355/1/6 364/1/6
f 356/17/6 357/17/6 365/17/6
f 364/26/6 356/26/6 365/26/6
f 357/17/6 358/17/6 365/17/6
f 358/15/6 359/15/6 366/15/6
f 365/17/6 358/17/6 366/17/6
f 359/29/6 360/29/6 367/29/6
f 366/15/6 359/15/6 367/15/6
f 360/7/6 361/7/6 368/7/6
f 367/29/6 360/29/6 368/29/6
f 361/2/6 350/2/6 369/2/6
f 368/7/6 361/7/6 369/7/6
f 369/2/6 350/2/6 370/2/6
f 363/2/6 364/2/6 371/2/6
f 364/30/6 365/30/6 372/30/6
f 371/2/6 364/2/6 372/2/6
f 365/1/6 366/1/6 373/1/6
f 372/30/6 365/30/6 373/30/6
f 366/1/6 367/1/6 373/1/6
f 367/31/6 368/31/6 374/31/6
f 373/1/6 367/1/6 374/1/6
f 368/2/6 369/2/6 375/2/6
f 374/31/6 368/31/6 375/31/6
f 375/2/6 369/2/6 376/2/6
f 373/2/6 374/2/6 377/2/6
f 377/2/6 374/2/6 378/2/6
